<svg id="Layer_2" data-name="Layer 2" xmlns="http://www.w3.org/2000/svg" viewBox="0 0 64.82 33.62"><defs><style>.cls-1{fill:none;}.cls-1,.cls-2{stroke:#000;stroke-miterlimit:10;stroke-width:0.13px;}</style></defs><title>logo</title><line class="cls-1" x1="32.47" y1="8.15" x2="32.47" y2="25.47"/><path class="cls-1" d="M20.05,8.34a8.66,8.66,0,0,1,0,17.32" transform="translate(-0.06 -0.19)"/><path class="cls-1" d="M45,25.66A8.66,8.66,0,0,1,45,8.34h0" transform="translate(-0.06 -0.19)"/><path d="M32.53,8.34H45a8.66,8.66,0,0,0,0,17.32H32.53Zm0,0V25.66H20.05a8.66,8.66,0,0,0,0-17.32ZM64.88,6.56V8.47H32.53V6.56H64.88Zm0-6.37V6.56H37.82c3.62,0,6.56-1.43,6.56-3.18S41.43.19,37.82.19ZM37.82.19c3.62,0,6.56,1.43,6.56,3.18s-2.94,3.18-6.56,3.18a10,10,0,0,1-5.28-1.3,2.38,2.38,0,0,0,1.27-1.88,2.38,2.38,0,0,0-1.27-1.88A10,10,0,0,1,37.82.19Zm0,6.37H32.53V5.26A10,10,0,0,0,37.82,6.56ZM32.53,1.49a2.38,2.38,0,0,1,1.27,1.88,2.38,2.38,0,0,1-1.27,1.88Zm0,5.07V8.47H.19V6.56H32.53Zm0-1.3v1.3H27.25A10,10,0,0,0,32.53,5.26Zm0-3.77V5.26a2.38,2.38,0,0,1-1.27-1.88A2.38,2.38,0,0,1,32.53,1.49ZM27.25.19a10,10,0,0,1,5.28,1.3,2.38,2.38,0,0,0-1.27,1.88,2.38,2.38,0,0,0,1.27,1.88,10,10,0,0,1-5.28,1.3c-3.62,0-6.56-1.43-6.56-3.18S23.63.19,27.25.19ZM.19.19H27.25c-3.62,0-6.56,1.43-6.56,3.18s2.94,3.18,6.56,3.18H.19ZM32.53,8.47H.19V.19H27.25m10.57,0H64.88V8.47H32.53V5.26m0,0a10,10,0,0,1-5.28,1.3c-3.62,0-6.56-1.43-6.56-3.18S23.63.19,27.25.19a10,10,0,0,1,5.28,1.3M37.82.19c3.62,0,6.56,1.43,6.56,3.18s-2.94,3.18-6.56,3.18a10,10,0,0,1-5.28-1.3,2.38,2.38,0,0,1-1.27-1.88,2.38,2.38,0,0,1,1.27-1.88A10,10,0,0,1,37.82.19ZM64.88,27.44v6.37H37.82c3.62,0,6.56-1.43,6.56-3.18s-2.94-3.18-6.56-3.18Zm0-1.91v1.91H32.53V25.53H64.88ZM37.82,27.44c3.62,0,6.56,1.43,6.56,3.18s-2.94,3.18-6.56,3.18a10,10,0,0,1-5.28-1.3,2.38,2.38,0,0,0,1.27-1.88,2.38,2.38,0,0,0-1.27-1.88A10,10,0,0,1,37.82,27.44Zm-5.28,0h5.28a10,10,0,0,0-5.28,1.3Zm0,1.3a2.38,2.38,0,0,1,1.27,1.88,2.38,2.38,0,0,1-1.27,1.88Zm0,0v3.77a2.38,2.38,0,0,1-1.27-1.88A2.38,2.38,0,0,1,32.53,28.74Zm0-1.3v1.3a10,10,0,0,0-5.28-1.3Zm0-1.91v1.91H.19V25.53H32.53Zm-5.28,1.91a10,10,0,0,1,5.28,1.3,2.38,2.38,0,0,0-1.27,1.88,2.38,2.38,0,0,0,1.27,1.88,10,10,0,0,1-5.28,1.3c-3.62,0-6.56-1.43-6.56-3.18S23.63,27.44,27.25,27.44Zm-27.06,0H27.25c-3.62,0-6.56,1.43-6.56,3.18s2.94,3.18,6.56,3.18H.19Zm27.06,6.37H.19V25.53H32.53m0,3.21V25.53H64.88v8.28H37.82m-5.28-1.3a10,10,0,0,1-5.28,1.3c-3.62,0-6.56-1.43-6.56-3.18s2.94-3.18,6.56-3.18a10,10,0,0,1,5.28,1.3m5.28-1.3c3.62,0,6.56,1.43,6.56,3.18s-2.94,3.18-6.56,3.18a10,10,0,0,1-5.28-1.3,2.38,2.38,0,0,1-1.27-1.88,2.38,2.38,0,0,1,1.27-1.88A10,10,0,0,1,37.82,27.44Z" transform="translate(-0.06 -0.19)"/><circle class="cls-2" cx="3.25" cy="16.81" r="3.18"/></svg>